<svg width="12" height="12" viewBox="0 0 12 12" fill="none" xmlns="http://www.w3.org/2000/svg">
<path fill-rule="evenodd" clip-rule="evenodd" d="M12 6C12 9.3137 9.3137 12 6 12C2.68629 12 0 9.3137 0 6C0 2.68629 2.68629 0 6 0C9.3137 0 12 2.68629 12 6ZM6.59995 3.0246C7.28664 3.1092 8.9717 3.4986 9.584 5.3037C9.6245 5.4225 9.5864 5.5539 9.4889 5.6328C9.4343 5.6772 9.3674 5.7 9.2999 5.7C9.2474 5.7 9.1946 5.6862 9.1472 5.6583C8.3786 5.2038 7.15524 5.1171 6.59995 5.1021V8.1C6.59995 8.9271 5.92706 9.6 5.09998 9.6C4.27289 9.6 3.6 8.9271 3.6 8.1C3.6 7.2729 4.27289 6.6 5.09998 6.6C5.43897 6.6 5.74857 6.7173 5.99996 6.9078V2.4H6.59995V3.0246Z" fill="#E382BC"/>
</svg>
