<svg width="16" height="16" viewBox="0 0 16 16" fill="none" xmlns="http://www.w3.org/2000/svg">
<path fill-rule="evenodd" clip-rule="evenodd" d="M6.1125 2.0001C6.65558 1.99436 7.1625 2.2452 7.495 2.67103L8.00833 3.35353C8.17167 3.5577 8.41667 3.6802 8.67917 3.6802H10.47C12.6225 3.6802 13.6725 4.82936 13.6667 7.18603V8.11783C13.1454 7.93357 12.5844 7.83331 12 7.83331C9.23858 7.83331 7 10.0719 7 12.8333C7 13.1173 7.02368 13.3958 7.06917 13.6669H5.64C3.39417 13.6669 2 12.2785 2 10.021V5.6402C2 3.2252 3.07333 2.0001 5.19083 2.0001H6.1125Z" fill="#64748B"/>
<path d="M10.3571 8.94702H9.28571V11.9655C9.28571 12.7123 9.04421 12.9209 8.62395 12.9209C8.427 12.9209 8.24964 12.8851 8.11167 12.8348L8 13.7184C8.19687 13.7903 8.499 13.8334 8.73536 13.8334C9.70029 13.8334 10.3571 13.3523 10.3571 11.9729V8.94702ZM12.6937 8.83337C11.6565 8.83337 11 9.45835 11 10.2844C11 10.9958 11.5056 11.4412 12.2407 11.7285C12.7724 11.9296 12.9826 12.1093 12.9826 12.4038C12.9826 12.727 12.7397 12.9354 12.2802 12.9354C11.8534 12.9354 11.466 12.7843 11.2035 12.6335V12.6332L11 13.5312C11.2496 13.6823 11.7157 13.8331 12.221 13.8331C13.4355 13.8331 14 13.1435 14 12.3317C14 11.6421 13.639 11.1968 12.8579 10.8805C12.2801 10.6364 12.0373 10.4999 12.0373 10.191C12.0373 9.94671 12.2474 9.72414 12.6807 9.72414C13.1072 9.72414 13.4005 9.87623 13.5714 9.96975L13.8276 9.06066C13.5597 8.93593 13.1989 8.83337 12.6937 8.83337Z" fill="#FFB800"/>
</svg>
