<svg width="16" height="16" viewBox="0 0 16 16" fill="none" xmlns="http://www.w3.org/2000/svg">
<path fill-rule="evenodd" clip-rule="evenodd" d="M6.1125 2.00013C6.65558 1.9944 7.1625 2.24523 7.495 2.67106L8.00833 3.35356C8.17167 3.55773 8.41667 3.68023 8.67917 3.68023H10.47C12.6225 3.68023 13.6725 4.8294 13.6667 7.18606V8.11787C13.1454 7.93361 12.5844 7.83335 12 7.83335C9.23858 7.83335 7 10.0719 7 12.8333C7 13.1174 7.02368 13.3958 7.06917 13.6669H5.64C3.39417 13.6669 2 12.2786 2 10.0211V5.64023C2 3.22523 3.07333 2.00013 5.19083 2.00013H6.1125Z" fill="#64748B"/>
<path d="M11 11C11 10.4477 10.5523 10 10 10C9.44772 10 9 10.4477 9 11C9 11.5523 9.44772 12 10 12C10.5523 12 11 11.5523 11 11Z" fill="#00B6C2"/>
<path d="M14 11C14 10.4477 13.5523 10 13 10C12.4477 10 12 10.4477 12 11C12 11.5523 12.4477 12 13 12C13.5523 12 14 11.5523 14 11Z" fill="#3DB931"/>
<path d="M14 14C14 13.4477 13.5523 13 13 13C12.4477 13 12 13.4477 12 14C12 14.5523 12.4477 15 13 15C13.5523 15 14 14.5523 14 14Z" fill="#E75A5A"/>
<path d="M11 14C11 13.4477 10.5523 13 10 13C9.44772 13 9 13.4477 9 14C9 14.5523 9.44772 15 10 15C10.5523 15 11 14.5523 11 14Z" fill="#E382BC"/>
</svg>
