<svg width="16" height="16" viewBox="0 0 16 16" fill="none" xmlns="http://www.w3.org/2000/svg">
<path fill-rule="evenodd" clip-rule="evenodd" d="M6.1125 2.0001C6.65558 1.99436 7.1625 2.2452 7.495 2.67103L8.00833 3.35353C8.17167 3.5577 8.41667 3.6802 8.67917 3.6802H10.47C12.6225 3.6802 13.6725 4.82936 13.6667 7.18603V8.11783C13.1454 7.93357 12.5844 7.83331 12 7.83331C9.23858 7.83331 7 10.0719 7 12.8333C7 13.1173 7.02368 13.3958 7.06917 13.6669H5.64C3.39417 13.6669 2 12.2785 2 10.021V5.6402C2 3.2252 3.07333 2.0001 5.19083 2.0001H6.1125Z" fill="#798BAF"/>
<path d="M11 11C11 10.4477 10.5523 10 10 10C9.44772 10 9 10.4477 9 11C9 11.5523 9.44772 12 10 12C10.5523 12 11 11.5523 11 11Z" fill="#00B6C2"/>
<path d="M14 11C14 10.4477 13.5523 10 13 10C12.4477 10 12 10.4477 12 11C12 11.5523 12.4477 12 13 12C13.5523 12 14 11.5523 14 11Z" fill="#3DB931"/>
<path d="M14 14C14 13.4477 13.5523 13 13 13C12.4477 13 12 13.4477 12 14C12 14.5523 12.4477 15 13 15C13.5523 15 14 14.5523 14 14Z" fill="#E75A5A"/>
<path d="M11 14C11 13.4477 10.5523 13 10 13C9.44772 13 9 13.4477 9 14C9 14.5523 9.44772 15 10 15C10.5523 15 11 14.5523 11 14Z" fill="#E382BC"/>
</svg>
