<svg width="16" height="16" viewBox="0 0 16 16" fill="none" xmlns="http://www.w3.org/2000/svg">
<mask id="mask0_10_302" style="mask-type:alpha" maskUnits="userSpaceOnUse" x="3" y="4" width="11" height="9">
<path d="M11.61 4H4.64C3.73425 4 3 4.73425 3 5.64V10.56C3 11.4657 3.73425 12.2 4.64 12.2H11.61C12.5157 12.2 13.25 11.4657 13.25 10.56V5.64C13.25 4.73425 12.5157 4 11.61 4Z" fill="#00B6C2"/>
</mask>
<g mask="url(#mask0_10_302)">
<path d="M13.25 4H3V12.2H13.25V4Z" fill="#64748B"/>
<path d="M11.0462 8.09998L5.05 13.225L13.8137 12.8589L14.275 9.56426L11.0462 8.09998Z" fill="#303030"/>
<path d="M5.98958 8.27081C6.6972 8.27081 7.27083 7.69718 7.27083 6.98956C7.27083 6.28195 6.6972 5.70831 5.98958 5.70831C5.28197 5.70831 4.70833 6.28195 4.70833 6.98956C4.70833 7.69718 5.28197 8.27081 5.98958 8.27081Z" fill="white"/>
</g>
</svg>
