<svg width="16" height="16" viewBox="0 0 16 16" fill="none" xmlns="http://www.w3.org/2000/svg">
<g clip-path="url(#clip0_10_226)">
<path d="M11.5 3H4.5C3.67157 3 3 3.67157 3 4.5V11.5C3 12.3284 3.67157 13 4.5 13H11.5C12.3284 13 13 12.3284 13 11.5V4.5C13 3.67157 12.3284 3 11.5 3Z" fill="#FCEFB4"/>
<path d="M9.32812 10.2266C9.52344 10.5586 9.79688 10.793 10.2461 10.793C10.6367 10.793 10.8906 10.5977 10.8906 10.3242C10.8906 10.0117 10.6367 9.89453 10.207 9.69922L9.97266 9.60156C9.28906 9.30859 8.83984 8.95703 8.83984 8.19531C8.83984 7.49219 9.36719 6.94531 10.207 6.94531C10.8125 6.94531 11.2422 7.16016 11.5352 7.70703L10.8125 8.17578C10.6562 7.88281 10.4805 7.76562 10.207 7.76562C9.93359 7.76562 9.75781 7.94141 9.75781 8.17578C9.75781 8.44922 9.93359 8.56641 10.3438 8.74219L10.5781 8.83984C11.3789 9.19141 11.8281 9.52344 11.8281 10.3242C11.8281 11.1641 11.1641 11.6328 10.2656 11.6328C9.38672 11.6328 8.82031 11.2227 8.54688 10.6758L9.32812 10.2266ZM6.00781 10.3047C6.16406 10.5586 6.28125 10.793 6.61328 10.793C6.92578 10.793 7.12109 10.6758 7.12109 10.207V6.96484H8.05859V10.168C8.05859 11.1445 7.49219 11.5742 6.65234 11.5742C5.89062 11.5742 5.46094 11.1836 5.24609 10.7148L6.00781 10.3047Z" fill="black"/>
</g>
<defs>
<clipPath id="clip0_10_226">
<rect width="10" height="10" fill="white" transform="translate(3 3)"/>
</clipPath>
</defs>
</svg>
