<svg width="16" height="16" viewBox="0 0 16 16" fill="none" xmlns="http://www.w3.org/2000/svg">
<path fill-rule="evenodd" clip-rule="evenodd" d="M8 3C5.24292 3 3 5.24292 3 8C3 10.7571 5.24292 13 8 13C10.7571 13 13 10.7571 13 8C13 5.24292 10.7571 3 8 3ZM9.02918 10.6502C8.6823 10.7934 7.83357 11.1438 7.3275 10.6979C7.16333 10.5537 7.08167 10.3708 7.08167 10.1487C7.08167 9.81717 7.16856 9.51952 7.32862 8.97122C7.36928 8.83191 7.41469 8.67636 7.46458 8.50001C7.50792 8.33542 7.56083 8.12209 7.56083 7.95292C7.56083 7.66084 7.45 7.58334 7.14958 7.58334C7.00292 7.58334 6.84042 7.63542 6.69333 7.69042L6.77458 7.35751C7.1025 7.22417 7.51417 7.06167 7.86667 7.06167C8.39542 7.06167 8.78458 7.32542 8.78458 7.82709C8.78458 7.97167 8.75958 8.22501 8.70708 8.40001L8.40292 9.47584C8.34 9.69333 8.22625 10.1729 8.4025 10.315C8.57583 10.4554 8.98625 10.3808 9.18875 10.2854L9.1075 10.6183C9.08553 10.627 9.05924 10.6378 9.02918 10.6502ZM7.98 5.70833C7.98 6.05333 8.26 6.33333 8.605 6.33333C8.95 6.33333 9.23 6.05333 9.23 5.70833C9.23 5.36333 8.95 5.08333 8.605 5.08333C8.26 5.08333 7.98 5.36333 7.98 5.70833Z" fill="#E07B7B"/>
</svg>
