<svg width="600" height="600" viewBox="0 0 600 600" fill="none" xmlns="http://www.w3.org/2000/svg">
<path d="M60.2128 56.8964C57.9412 27.8351 80.9108 3 110.061 3H487.051C516.882 3 540.076 28.9536 536.737 58.5971L496.339 417.212C494.842 430.498 488.087 442.631 477.582 450.902L322.928 572.652C304.783 586.936 279.217 586.936 261.072 572.652L107.213 451.527C96.241 442.89 89.381 430.058 88.2929 416.137L60.2128 56.8964Z" fill="#CD6799"/>
<path d="M261.123 440.025C234.873 440.025 216.423 434.325 205.773 422.925C195.123 411.525 189.798 391.95 189.798 364.2V285.675L162.573 275.325C156.723 272.775 153.798 268.5 153.798 262.5V247.875C153.798 242.025 156.648 237.825 162.348 235.275L189.798 224.475V145.95C189.798 128.85 191.748 114.375 195.648 102.525C199.548 90.525 206.298 81.375 215.898 75.075C225.498 68.775 238.923 65.625 256.173 65.625C261.873 65.625 265.923 66.45 268.323 68.1C270.873 69.75 272.148 72.45 272.148 76.2C272.148 80.1 271.023 82.95 268.773 84.75C266.673 86.4 264.123 87.375 261.123 87.675C254.523 88.275 248.223 88.8 242.223 89.25C236.373 89.55 231.123 91.2 226.473 94.2C221.973 97.05 218.373 102.45 215.673 110.4C213.123 118.2 211.848 130.05 211.848 145.95V230.1C211.848 236.25 209.073 240.525 203.523 242.925L172.248 254.625V255.975L203.073 267.225C208.923 269.475 211.848 273.675 211.848 279.825V364.2C211.848 380.55 213.273 392.4 216.123 399.75C219.123 407.1 224.223 411.75 231.423 413.7C238.623 415.8 248.523 417.225 261.123 417.975C264.873 418.125 267.648 419.25 269.448 421.35C271.248 423.6 272.148 426.15 272.148 429C272.148 432 271.098 434.55 268.998 436.65C266.898 438.9 264.273 440.025 261.123 440.025ZM337.025 440.025C334.025 440.025 331.4 438.9 329.15 436.65C327.05 434.55 326 432 326 429C326 426.15 326.975 423.6 328.925 421.35C330.875 419.25 333.575 418.125 337.025 417.975C349.775 417.225 359.675 415.8 366.725 413.7C373.925 411.75 378.95 407.1 381.8 399.75C384.8 392.4 386.3 380.55 386.3 364.2V279.825C386.3 273.675 389.225 269.475 395.075 267.225L425.9 255.975V254.625L394.85 242.925C389.15 240.525 386.3 236.25 386.3 230.1V145.95C386.3 130.05 384.95 118.2 382.25 110.4C379.7 102.45 376.1 97.05 371.45 94.2C366.95 91.2 361.7 89.55 355.7 89.25C349.85 88.8 343.625 88.275 337.025 87.675C334.175 87.375 331.625 86.4 329.375 84.75C327.125 82.95 326 80.1 326 76.2C326 72.45 327.275 69.75 329.825 68.1C332.525 66.45 336.65 65.625 342.2 65.625C359.45 65.625 372.8 68.775 382.25 75.075C391.85 81.375 398.6 90.525 402.5 102.525C406.4 114.375 408.35 128.85 408.35 145.95V224.475L436.025 235.275C441.575 237.825 444.35 242.025 444.35 247.875V262.5C444.35 268.5 441.425 272.775 435.575 275.325L408.35 285.675V364.2C408.35 391.95 403.025 411.525 392.375 422.925C381.875 434.325 363.425 440.025 337.025 440.025Z" fill="white"/>
</svg>
