<svg width="600" height="600" viewBox="0 0 600 600" fill="none" xmlns="http://www.w3.org/2000/svg">
<path fill-rule="evenodd" clip-rule="evenodd" d="M258.431 136H135.108C112.498 136 94 154.506 94 177.125V423.875C94 446.494 112.498 465 135.108 465H463.97C486.579 465 505.078 446.494 505.078 423.875V218.25C505.078 195.631 486.579 177.125 463.97 177.125H299.539L258.431 136Z" fill="#34AADC"/>
<path d="M222.854 366.562L324.074 407.578V436.289L204.25 380.771V363.926L222.854 366.562ZM324.074 332.871L223 374.473L204.25 376.523V359.531L324.074 304.16V332.871ZM431.33 251.719L342.414 483.311H319.123L408.186 251.719H431.33ZM534.191 372.422L430.041 331.846V303.867L555.139 359.238V376.377L534.191 372.422ZM430.041 408.164L534.484 366.709L555.139 363.633V380.625L430.041 436.143V408.164Z" fill="white"/>
</svg>
