<svg width="600" height="600" viewBox="0 0 600 600" fill="none" xmlns="http://www.w3.org/2000/svg">
<path d="M519.598 472.564C515.822 514.121 486.638 548.965 446.387 559.973L326.397 592.786C309.129 597.509 290.909 597.509 273.64 592.786L153.651 559.973C113.4 548.965 84.2156 514.121 80.4395 472.564L47.4088 109.049C42.0877 50.4891 88.1971 0 146.998 0H453.039C511.84 0 557.95 50.4891 552.629 109.049L519.598 472.564Z" fill="#E34F26"/>
<path d="M400 37.5C344.772 37.5 300 82.2715 300 137.5V437.58C300 497.573 357.747 540.661 415.257 523.58V523.58C450.231 513.192 475.432 482.658 478.998 446.348L508.369 147.274C514.145 88.4652 467.939 37.5 408.848 37.5H400Z" fill="#FF622B"/>
<path d="M456.806 112.5H142.631L150 187.5L161.606 318.75H365.681L359.025 393.45L300 412.312L241.069 393.45L237.15 356.25H165.056L173.663 449.756L300 487.312L426.15 449.738L444.713 243.75H229.725L225.038 187.5H450L456.806 112.5Z" fill="white"/>
</svg>
