<svg width="600" height="600" viewBox="0 0 600 600" fill="none" xmlns="http://www.w3.org/2000/svg">
<path d="M600 150C600 95 555 50 500 50H100C45 50 0 95 0 150V450C0 505 45 550 100 550H500C555 550 600 505 600 450V150ZM150 150C177.5 150 200 172.5 200 200C200 227.5 177.5 250 150 250C122.5 250 100 227.5 100 200C100 172.5 122.5 150 150 150ZM550 450C550 477.5 527.5 500 500 500H110C87.5 500 77.5 472.5 92.5 457.5L182.5 367.5C192.5 357.5 207.5 357.5 217.5 367.5L232.5 382.5C242.5 392.5 257.5 392.5 267.5 382.5L432.5 217.5C442.5 207.5 457.5 207.5 467.5 217.5L542.5 292.5C547.5 297.5 550 302.5 550 310V450Z" fill="#FFCD00"/>
</svg>
