<svg width="600" height="600" viewBox="0 0 600 600" fill="none" xmlns="http://www.w3.org/2000/svg">
<path d="M219.285 498.96C191.285 498.96 171.605 492.88 160.245 480.72C148.885 468.56 143.205 447.68 143.205 418.08V334.32L114.165 323.28C107.925 320.56 104.805 316 104.805 309.6V294C104.805 287.76 107.845 283.28 113.925 280.56L143.205 269.04V185.28C143.205 167.04 145.285 151.6 149.445 138.96C153.605 126.16 160.805 116.4 171.045 109.68C181.285 102.96 195.605 99.6 214.005 99.6C220.085 99.6 224.405 100.48 226.965 102.24C229.685 104 231.045 106.88 231.045 110.88C231.045 115.04 229.845 118.08 227.445 120C225.205 121.76 222.485 122.8 219.285 123.12C212.245 123.76 205.525 124.32 199.125 124.8C192.885 125.12 187.285 126.88 182.325 130.08C177.525 133.12 173.685 138.88 170.805 147.36C168.085 155.68 166.725 168.32 166.725 185.28V275.04C166.725 281.6 163.765 286.16 157.845 288.72L124.485 301.2V302.64L157.365 314.64C163.605 317.04 166.725 321.52 166.725 328.08V418.08C166.725 435.52 168.245 448.16 171.285 456C174.485 463.84 179.925 468.8 187.605 470.88C195.285 473.12 205.845 474.64 219.285 475.44C223.285 475.6 226.245 476.8 228.165 479.04C230.085 481.44 231.045 484.16 231.045 487.2C231.045 490.4 229.925 493.12 227.685 495.36C225.445 497.76 222.645 498.96 219.285 498.96ZM380.873 498.96C377.673 498.96 374.873 497.76 372.473 495.36C370.233 493.12 369.113 490.4 369.113 487.2C369.113 484.16 370.153 481.44 372.232 479.04C374.313 476.8 377.193 475.6 380.873 475.44C394.473 474.64 405.033 473.12 412.553 470.88C420.233 468.8 425.593 463.84 428.633 456C431.833 448.16 433.433 435.52 433.433 418.08V328.08C433.433 321.52 436.553 317.04 442.793 314.64L475.673 302.64V301.2L442.553 288.72C436.473 286.16 433.433 281.6 433.433 275.04V185.28C433.433 168.32 431.993 155.68 429.113 147.36C426.393 138.88 422.553 133.12 417.593 130.08C412.793 126.88 407.193 125.12 400.793 124.8C394.553 124.32 387.913 123.76 380.873 123.12C377.833 122.8 375.113 121.76 372.713 120C370.313 118.08 369.113 115.04 369.113 110.88C369.113 106.88 370.473 104 373.193 102.24C376.073 100.48 380.473 99.6 386.393 99.6C404.793 99.6 419.033 102.96 429.113 109.68C439.353 116.4 446.553 126.16 450.713 138.96C454.873 151.6 456.953 167.04 456.953 185.28V269.04L486.473 280.56C492.393 283.28 495.353 287.76 495.353 294V309.6C495.353 316 492.233 320.56 485.993 323.28L456.953 334.32V418.08C456.953 447.68 451.273 468.56 439.913 480.72C428.713 492.88 409.033 498.96 380.873 498.96Z" fill="#F9AC00"/>
<path d="M236.888 420C227.608 420 222.967 415.28 222.967 405.84V396.72C222.967 387.6 227.608 383.04 236.888 383.04H245.768C254.888 383.04 259.448 387.6 259.448 396.72V405.84C259.448 415.28 254.888 420 245.768 420H236.888ZM295.763 420C286.483 420 281.842 415.28 281.842 405.84V396.72C281.842 387.6 286.483 383.04 295.763 383.04H304.643C313.763 383.04 318.323 387.6 318.323 396.72V405.84C318.323 415.28 313.763 420 304.643 420H295.763ZM354.638 420C345.358 420 340.717 415.28 340.717 405.84V396.72C340.717 387.6 345.358 383.04 354.638 383.04H363.518C372.638 383.04 377.198 387.6 377.198 396.72V405.84C377.198 415.28 372.638 420 363.518 420H354.638Z" fill="#FF9900"/>
</svg>
