<svg width="600" height="600" viewBox="0 0 600 600" fill="none" xmlns="http://www.w3.org/2000/svg">
<path d="M299.5 349.8C327.225 349.8 349.7 327.325 349.7 299.6C349.7 271.875 327.225 249.4 299.5 249.4C271.775 249.4 249.3 271.875 249.3 299.6C249.3 327.325 271.775 349.8 299.5 349.8Z" fill="#61DAFB"/>
<path d="M299.5 414.6C229 414.6 167.4 406.3 121.3 390.5C91.4 380.3 66 366.7 47.9 351.2C28.7 334.8 18.5 316.9 18.5 299.6C18.5 266.4 54.9 233.9 116 212.7C166 195.3 231.2 185.6 299.4 185.6C366.4 185.6 430.7 195 480.4 212.2C509.5 222.2 534 235.2 551.4 249.6C570.3 265.4 580.3 282.7 580.3 299.6C580.3 334.1 539.6 369 474 390.7C427.6 406.1 365.6 414.6 299.5 414.6ZM299.5 209.6C234.8 209.6 170.8 219 124 235.3C67.8 254.9 42.6 281.7 42.6 299.6C42.6 318.2 69.7 347.5 129.1 367.8C172.7 382.7 231.7 390.6 299.5 390.6C363.1 390.6 422.4 382.6 466.5 367.9C528.2 347.4 556.4 318.1 556.4 299.6C556.4 290.1 549.2 278.9 536.1 268C521 255.4 499 243.9 472.7 234.8C425.4 218.6 363.9 209.6 299.5 209.6Z" fill="#61DAFB"/>
<path d="M185.6 549.8C175.4 549.8 166.4 547.6 158.8 543.2C130.1 526.6 120.1 478.8 132.2 415.3C142.1 363.2 166.3 302 200.4 242.9C233.9 184.9 274.1 133.9 313.8 99.4C337 79.2 360.5 64.4 381.7 56.6C404.8 48.1 424.8 48.1 439.4 56.5C469.3 73.7 479.2 126.5 465.2 194.1C455.3 242.1 431.7 300 398.7 357.3C363.5 418.3 325.5 467.5 288.8 499.6C265 520.4 240.5 535.6 218.1 543.5C206.4 547.7 195.4 549.8 185.6 549.8ZM210.7 248.9L221.1 254.9C188.8 310.9 164.9 371 155.7 419.8C144.6 478.3 155.3 513.5 170.7 522.4C174.5 524.6 179.5 525.8 185.6 525.8C205.5 525.8 236.8 513.2 273 481.6C307.7 451.3 344 404.1 377.9 345.4C409.7 290.3 432.3 234.9 441.7 189.4C454.8 125.7 443.5 86.7 427.4 77.4C419.2 72.7 405.9 73.3 389.9 79.2C371.4 86 350.5 99.3 329.5 117.6C291.8 150.4 253.3 199.2 221.1 255L210.7 248.9Z" fill="#61DAFB"/>
<path d="M413.4 550.1C386.2 550.1 351.7 533.7 315.7 502.7C275.5 468.1 234.6 416.6 200.4 357.5C166.8 299.5 142.8 239.2 132.7 187.5C126.8 157.3 125.7 129.6 129.5 107.3C133.7 83 143.6 65.7 158.3 57.2C188.1 39.9 238.8 57.7 290.4 103.6C327 136.1 365.4 185.5 398.5 242.7C433.8 303.7 457.5 361.2 466.9 409C473 440 474 468.8 469.7 492.2C465.1 517.1 454.7 534.8 439.7 543.5C432.2 547.9 423.3 550.1 413.4 550.1ZM221.2 345.5C253.6 401.5 293.8 452.2 331.4 484.5C376.5 523.3 412.3 531.7 427.8 522.7C443.9 513.4 455.7 475.3 443.5 413.7C434.5 368.5 411.8 313.5 377.8 254.8C345.9 199.7 309.2 152.4 274.5 121.6C225.9 78.4 186.5 68.7 170.4 78C162.2 82.7 156.1 94.6 153.2 111.4C149.9 130.8 150.9 155.6 156.3 182.9C165.9 232 188.9 289.7 221.2 345.5Z" fill="#61DAFB"/>
</svg>
