<svg width="600" height="600" viewBox="0 0 600 600" fill="none" xmlns="http://www.w3.org/2000/svg">
<path d="M283.235 18.5294C230.881 18.5294 179.703 34.0541 136.173 63.1404C92.642 92.2266 58.714 133.568 38.6791 181.937C18.6441 230.305 13.4021 283.529 23.6158 334.877C33.8295 386.225 59.0403 433.391 96.0601 470.411C133.08 507.43 180.246 532.641 231.594 542.855C282.942 553.069 336.165 547.826 384.534 527.792C432.903 507.757 474.244 473.829 503.33 430.298C532.416 386.767 547.941 335.589 547.941 283.235C547.941 213.031 520.053 145.702 470.411 96.06C420.769 46.418 353.44 18.5294 283.235 18.5294ZM318.529 406.765C318.529 416.125 314.811 425.102 308.192 431.721C301.573 438.34 292.596 442.059 283.235 442.059C273.875 442.059 264.898 438.34 258.279 431.721C251.66 425.102 247.941 416.125 247.941 406.765V283.235C247.941 273.875 251.66 264.897 258.279 258.279C264.898 251.66 273.875 247.941 283.235 247.941C292.596 247.941 301.573 251.66 308.192 258.279C314.811 264.897 318.529 273.875 318.529 283.235V406.765ZM283.235 216C275.592 216 268.12 213.733 261.764 209.487C255.409 205.24 250.455 199.204 247.53 192.142C244.605 185.081 243.84 177.31 245.331 169.813C246.822 162.316 250.503 155.43 255.908 150.025C261.313 144.62 268.199 140.94 275.696 139.448C283.192 137.957 290.963 138.723 298.025 141.648C305.087 144.573 311.123 149.526 315.369 155.882C319.616 162.237 321.882 169.709 321.882 177.353C321.882 182.428 320.883 187.454 318.941 192.142C316.998 196.831 314.152 201.092 310.563 204.68C306.974 208.269 302.714 211.116 298.025 213.058C293.336 215 288.311 216 283.235 216Z" fill="#4CAF50"/>
</svg>
