<svg width="600" height="600" viewBox="0 0 600 600" fill="none" xmlns="http://www.w3.org/2000/svg">
<path d="M498.337 324.45C479.112 324.55 462.462 329.163 448.512 336.05C443.412 325.863 438.237 316.9 437.375 310.237C436.362 302.462 435.187 297.812 436.412 288.55C437.637 279.287 443 266.163 442.925 265.175C442.85 264.188 441.725 259.475 430.637 259.387C419.55 259.312 410.062 261.525 408.95 264.45C407.837 267.375 405.7 273.962 404.375 280.837C402.437 290.887 382.238 326.75 370.775 345.5C367.025 338.175 363.838 331.725 363.175 326.625C362.163 318.85 360.987 314.2 362.212 304.938C363.437 295.675 368.8 282.55 368.725 281.562C368.65 280.575 367.525 275.862 356.437 275.775C345.35 275.7 335.863 277.912 334.75 280.837C333.638 283.762 332.437 290.6 330.175 297.225C327.9 303.837 301.062 363.65 294.025 379.162C290.437 387.062 287.325 393.412 285.125 397.737L285.112 397.712C285.112 397.712 284.975 398 284.75 398.487C282.863 402.175 281.75 404.213 281.75 404.213C281.75 404.213 281.762 404.237 281.787 404.287C280.287 407 278.688 409.513 277.9 409.513C277.35 409.513 276.237 402.3 278.137 392.4C282.137 371.65 291.725 339.3 291.637 338.175C291.587 337.6 293.425 331.962 285.375 329.012C277.55 326.15 274.762 330.925 274.05 330.938C273.362 330.95 272.85 332.625 272.85 332.625C272.85 332.625 281.562 296.237 256.225 296.237C240.375 296.237 218.425 313.575 207.612 329.288C200.787 333.013 186.175 340.987 170.687 349.5C164.737 352.775 158.663 356.112 152.9 359.287C152.513 358.85 152.112 358.425 151.712 357.987C120.975 325.2 64.175 302.013 66.575 257.925C67.45 241.9 73.025 199.7 175.737 148.525C259.875 106.6 327.238 118.137 338.875 143.7C355.5 180.238 302.875 248.125 215.5 257.925C182.212 261.663 164.675 248.75 160.312 243.95C155.725 238.888 155.037 238.663 153.325 239.613C150.537 241.163 152.3 245.625 153.325 248.288C155.937 255.075 166.638 267.113 184.888 273.113C200.95 278.388 240.037 281.275 287.3 262.987C340.25 242.512 381.588 185.538 369.438 137.925C357.088 89.5 276.787 73.575 200.787 100.575C155.5 116.65 106.537 141.875 71.325 174.8C29.4625 213.95 22.7875 248.037 25.5375 262.275C35.3125 312.875 105.05 345.825 132.975 370.237C131.6 371 130.3 371.712 129.125 372.362C115.125 379.287 61.9625 407.112 48.6625 436.5C33.575 469.837 51.0625 493.762 62.6375 496.987C98.5 506.962 135.3 489.013 155.087 459.513C174.862 430.025 172.45 391.612 163.375 374.087C163.262 373.875 163.137 373.662 163.025 373.437C166.637 371.3 170.325 369.125 173.975 366.975C181.1 362.787 188.1 358.888 194.162 355.588C190.762 364.888 188.275 376.05 186.987 392.162C185.462 411.087 193.225 435.55 203.375 445.175C207.85 449.412 213.225 449.512 216.625 449.512C228.437 449.512 233.825 439.687 239.762 428.062C247.037 413.812 253.5 397.213 253.5 397.213C253.5 397.213 245.4 442.037 267.475 442.037C275.525 442.037 283.613 431.6 287.225 426.288C287.238 426.35 287.237 426.375 287.237 426.375C287.237 426.375 287.45 426.025 287.862 425.338C288.7 424.063 289.175 423.25 289.175 423.25C289.175 423.25 289.187 423.162 289.212 423.012C292.45 417.4 299.625 404.6 310.375 383.488C324.275 356.213 337.6 322.038 337.6 322.038C337.6 322.038 338.837 330.388 342.9 344.213C345.287 352.338 350.363 361.325 354.375 369.95C351.15 374.425 349.175 376.988 349.175 376.988C349.175 376.988 349.187 377.037 349.225 377.125C346.65 380.55 343.763 384.238 340.738 387.838C329.763 400.9 316.7 415.825 314.95 420.125C312.887 425.2 313.375 428.925 317.362 431.938C320.275 434.125 325.45 434.475 330.862 434.112C340.725 433.45 347.65 431 351.075 429.512C356.413 427.625 362.625 424.663 368.45 420.375C379.212 412.463 385.7 401.15 385.075 386.15C384.725 377.887 382.1 369.7 378.763 361.975C379.738 360.575 380.712 359.15 381.7 357.725C398.662 332.925 411.825 305.675 411.825 305.675C411.825 305.675 413.062 314.025 417.125 327.85C419.175 334.838 423.237 342.475 426.887 349.95C410.937 362.912 401.05 377.975 397.612 387.85C391.262 406.125 396.237 414.4 405.562 416.288C409.787 417.138 415.762 415.2 420.25 413.3C425.837 411.45 432.55 408.362 438.825 403.75C449.587 395.837 459.937 384.763 459.312 369.775C459.025 362.95 457.175 356.175 454.662 349.675C468.187 344.038 485.687 340.913 507.987 343.513C555.825 349.1 565.2 378.962 563.412 391.462C561.612 403.962 551.587 410.838 548.225 412.913C544.875 414.988 543.85 415.713 544.125 417.25C544.537 419.488 546.087 419.412 548.95 418.925C552.887 418.262 574.062 408.762 574.975 385.687C576.112 356.362 548.05 324.187 498.337 324.45ZM129.625 448.75C113.775 466.038 91.65 472.563 82.15 467.063C71.9 461.125 75.9625 435.675 95.4 417.325C107.25 406.15 122.55 395.85 132.7 389.512C135.012 388.125 138.4 386.087 142.525 383.612C143.213 383.225 143.6 383.013 143.6 383.013L143.588 382.987C144.388 382.512 145.2 382.025 146.037 381.512C153.125 407.625 146.262 430.613 129.625 448.75ZM245.062 370.287C239.55 383.737 228 418.163 220.962 416.312C214.925 414.725 211.25 388.562 219.762 362.812C224.037 349.85 233.187 334.362 238.562 328.35C247.212 318.675 256.738 315.512 259.05 319.438C261.988 324.438 248.525 361.85 245.062 370.287ZM340.425 415.788C338.087 417.013 335.937 417.775 334.95 417.187C334.212 416.75 335.912 415.137 335.912 415.137C335.912 415.137 347.837 402.3 352.537 396.462C355.275 393.062 358.437 389.025 361.887 384.525C361.912 384.975 361.925 385.425 361.925 385.862C361.9 401.237 347.05 411.613 340.425 415.788ZM413.887 399.038C412.137 397.8 412.437 393.788 418.175 381.275C420.425 376.363 425.575 368.1 434.5 360.2C435.537 363.45 436.162 366.562 436.15 369.462C436.037 388.812 422.237 396.038 413.887 399.038Z" fill="#CD6799"/>
</svg>
