<svg width="600" height="600" viewBox="0 0 600 600" fill="none" xmlns="http://www.w3.org/2000/svg">
<g clip-path="url(#clip0_2_10)">
<path fill-rule="evenodd" clip-rule="evenodd" d="M0 0H600V600H0V0ZM400 240C355.817 240 320 275.817 320 320C320 364.183 355.817 400 400 400H440C462.092 400 480 417.908 480 440C480 462.092 462.092 480 440 480H400C377.909 480 360 462.092 360 440H320C320 484.184 355.817 520 400 520H440C484.184 520 520 484.184 520 440C520 395.817 484.184 360 440 360H400C377.909 360 360 342.091 360 320C360 297.909 377.909 280 400 280H446.668C465.076 280 480 294.924 480 313.333V320H520V313.333C520 272.832 487.168 240 446.668 240H400ZM120 240H320V280H240V520H200V280H120V240Z" fill="#007ACC"/>
</g>
<defs>
<clipPath id="clip0_2_10">
<rect width="600" height="600" rx="50" fill="white"/>
</clipPath>
</defs>
</svg>
