<svg width="600" height="600" viewBox="0 0 600 600" fill="none" xmlns="http://www.w3.org/2000/svg">
<path fill-rule="evenodd" clip-rule="evenodd" d="M252.431 131H129.108C106.498 131 88 149.506 88 172.125V418.875C88 441.494 106.498 460 129.108 460H457.97C480.579 460 499.078 441.494 499.078 418.875V213.25C499.078 190.631 480.579 172.125 457.97 172.125H293.539L252.431 131Z" fill="#007ACC"/>
<path d="M513 443.9L448.838 470L343.35 365.6L277.013 417.8L252 403.662V275.338L277.013 262.287L343.35 314.487L448.838 209L513 235.1V443.9ZM379.237 339.5L447.75 393.875V285.125L379.237 339.5ZM277.013 379.738L317.25 339.5L278.1 299.263L277.013 379.738Z" fill="white"/>
</svg>
