<svg width="16" height="16" viewBox="0 0 16 16" fill="none" xmlns="http://www.w3.org/2000/svg">
<path fill-rule="evenodd" clip-rule="evenodd" d="M5.1125 1.16672C5.65558 1.16099 6.1625 1.41182 6.495 1.83766L7.00833 2.52016C7.17167 2.72432 7.41667 2.84682 7.67917 2.84682H9.47C11.6225 2.84682 12.6725 3.99599 12.6667 6.35265V7.28446C12.1454 7.1002 11.5844 6.99994 11 6.99994C8.23858 6.99994 6 9.23851 6 11.9999C6 12.2839 6.02368 12.5624 6.06917 12.8335H4.64C2.39417 12.8335 1 11.4452 1 9.18765V4.80682C1 2.39182 2.07333 1.16672 4.19083 1.16672H5.1125Z" fill="#798BAF"/>
<path d="M8.83591 13.8472C8.93041 13.9553 9.06748 14.0187 9.21195 14.0212C9.338 14.0233 9.45987 13.9792 9.55498 13.897C9.76696 13.7141 9.78935 13.3937 9.60499 13.183L8.25744 11.6449L9.65663 10.1535C9.84806 9.94944 9.8366 9.62849 9.63097 9.43841C9.53136 9.34628 9.40075 9.29709 9.26548 9.30295C9.12923 9.30778 9.00328 9.36471 8.91063 9.46345L7.19868 11.2884C7.02056 11.4783 7.0156 11.7693 7.18714 11.9655L8.83591 13.8472ZM13.443 9.54069C13.2586 9.33048 12.9362 9.30794 12.7239 9.49113C12.5119 9.67409 12.4895 9.99446 12.6739 10.2052L14.0214 11.7432L12.6222 13.2346C12.4308 13.4387 12.4423 13.7597 12.6479 13.95C12.7402 14.0351 12.8605 14.0833 12.9865 14.0855C13.131 14.0879 13.2701 14.0293 13.3683 13.9247L15.0802 12.0998C15.2583 11.9098 15.2633 11.6188 15.0917 11.4229L13.443 9.54069ZM12.0939 8.09928L12.0934 8.09903C11.8214 8.02866 11.5424 8.1907 11.4711 8.45958L9.8221 14.6706C9.75042 14.9402 9.91323 15.2175 10.1852 15.2889C10.2248 15.2992 10.2656 15.3048 10.3066 15.3055C10.5417 15.3095 10.7479 15.1546 10.8077 14.9286L12.4568 8.71757C12.5285 8.44794 12.3656 8.17063 12.0939 8.09928Z" fill="#F15B0D"/>
</svg>
