<svg width="16" height="16" viewBox="0 0 16 16" fill="none" xmlns="http://www.w3.org/2000/svg">
<path fill-rule="evenodd" clip-rule="evenodd" d="M6.1125 2.0001C6.65558 1.99436 7.1625 2.2452 7.495 2.67103L8.00833 3.35353C8.17167 3.5577 8.41667 3.6802 8.67917 3.6802H10.47C12.6225 3.6802 13.6725 4.82936 13.6667 7.18603V8.11783C13.1454 7.93357 12.5844 7.83331 12 7.83331C9.23858 7.83331 7 10.0719 7 12.8333C7 13.1173 7.02368 13.3958 7.06917 13.6669H5.64C3.39417 13.6669 2 12.2785 2 10.021V5.6402C2 3.2252 3.07333 2.0001 5.19083 2.0001H6.1125Z" fill="#798BAF"/>
<path fill-rule="evenodd" clip-rule="evenodd" d="M11.4306 9C11.3854 9 11.3406 9.01128 11.3002 9.03438L9.13044 10.2682C9.04931 10.3144 9 10.4036 9 10.4961V12.9723C9 13.0649 9.04937 13.1496 9.13044 13.1959L11.3002 14.434C11.3813 14.4803 11.4799 14.4803 11.561 14.434L13.7307 13.1959C13.8117 13.1496 13.8612 13.0649 13.8612 12.9723V10.4961C13.8612 10.4034 13.8118 10.3144 13.7307 10.2682L11.561 9.03438C11.5206 9.01128 11.4758 9 11.4306 9Z" fill="#A9EFA3"/>
<mask id="mask0_11_66" style="mask-type:alpha" maskUnits="userSpaceOnUse" x="9" y="9" width="5" height="6">
<path fill-rule="evenodd" clip-rule="evenodd" d="M11.4306 9C11.3854 9 11.3406 9.01128 11.3002 9.03438L9.13044 10.2682C9.04931 10.3144 9 10.4036 9 10.4961V12.9723C9 13.0649 9.04937 13.1496 9.13044 13.1959L11.3002 14.434C11.3813 14.4803 11.4799 14.4803 11.561 14.434L13.7307 13.1959C13.8117 13.1496 13.8612 13.0649 13.8612 12.9723V10.4961C13.8612 10.4034 13.8118 10.3144 13.7307 10.2682L11.561 9.03438C11.5206 9.01128 11.4758 9 11.4306 9Z" fill="white"/>
</mask>
<g mask="url(#mask0_11_66)">
<path fill-rule="evenodd" clip-rule="evenodd" d="M11.2082 8.53528L14.0438 13.4468L11.607 14.8537L8.7713 9.9422L11.2082 8.53528Z" fill="#00CC9B"/>
</g>
</svg>
