<svg width="16" height="16" viewBox="0 0 16 16" fill="none" xmlns="http://www.w3.org/2000/svg">
<path fill-rule="evenodd" clip-rule="evenodd" d="M6.1125 2.0001C6.65558 1.99436 7.1625 2.2452 7.495 2.67103L8.00833 3.35353C8.17167 3.5577 8.41667 3.6802 8.67917 3.6802H10.47C12.6225 3.6802 13.6725 4.82936 13.6667 7.18603V8.11783C13.1454 7.93357 12.5844 7.83331 12 7.83331C9.23858 7.83331 7 10.0719 7 12.8333C7 13.1173 7.02368 13.3958 7.06917 13.6669H5.64C3.39417 13.6669 2 12.2785 2 10.021V5.6402C2 3.2252 3.07333 2.0001 5.19083 2.0001H6.1125Z" fill="#798BAF"/>
<path fill-rule="evenodd" clip-rule="evenodd" d="M14.2495 9.48971L12.9987 9L10.8153 11.0766L9.50045 10.0991L9.0005 10.3447L9 12.9082L9.49761 13.152L10.8114 12.1753L13.0001 14.25L14.25 13.7622L14.2495 9.48971ZM12.8598 10.6985L11.625 11.6214L12.8603 12.5515L12.8598 10.6985ZM9.61839 12.1654L9.61765 11.0845L10.2353 11.6213L9.61839 12.1654Z" fill="#4C71F6"/>
</svg>
