<svg width="16" height="16" viewBox="0 0 16 16" fill="none" xmlns="http://www.w3.org/2000/svg">
<path d="M4.3253 12.2507L7.69797 13.9236C7.8925 14.0112 8.10837 14.0388 8.37503 13.9236L11.7352 12.2508C12.0109 12.1114 12.174 11.82 12.1613 11.516L12.9889 3.84903C13.0729 3.41893 12.6654 3.01761 12.2241 3H3.77363C3.3472 3.03429 2.93402 3.3491 3.00883 3.8744L3.8614 11.6045C3.91673 11.9243 4.01323 12.0726 4.3253 12.2507ZM6.3188 10.4893L4.45067 8.60133C4.0728 8.31817 4.207 7.86603 4.45067 7.6381L6.33137 5.73723C6.9928 5.15167 7.81217 6.02383 7.2466 6.66233L5.8173 8.1323L7.23407 9.5643C7.82153 10.2903 6.8858 11.0444 6.3188 10.4893ZM11.7477 8.58853L9.867 10.4893C9.22567 11.0617 8.36737 10.2192 8.95177 9.5643L10.3685 8.1323L8.93923 6.68767C8.38577 6.11907 9.15143 5.16307 9.8546 5.76257L11.7226 7.65077C11.9922 7.93447 11.9782 8.3548 11.7477 8.58853Z" fill="#E19235"/>
</svg>
