<svg width="12" height="12" viewBox="0 0 12 12" fill="none" xmlns="http://www.w3.org/2000/svg">
<path fill-rule="evenodd" clip-rule="evenodd" d="M5.9962 12C2.65568 12 0 9.3443 0 6.00381C0 2.65568 2.64807 0 5.9962 0C9.3519 0 12 2.65568 12 6.00381C12 9.3443 9.3443 12 5.9962 12ZM5.9962 10.7369C8.6595 10.7369 10.7521 8.6443 10.7521 6.00381C10.7521 3.34813 8.6595 1.26315 5.9962 1.26315C3.34053 1.26315 1.24794 3.35574 1.24794 6.00381C1.24794 8.6443 3.34053 10.7369 5.9962 10.7369Z" fill="#64748B"/>
<path fill-rule="evenodd" clip-rule="evenodd" d="M9 5.1942H7.46113C7.33834 4.60404 6.82265 4.24086 6.13507 4.24086C5.2101 4.24086 4.6453 4.89912 4.6453 5.98865C4.6453 7.10089 5.2101 7.75915 6.13507 7.75915C6.85539 7.75915 7.33834 7.42624 7.46113 6.8512H9C8.8445 8.1829 7.74762 9 6.12688 9C4.19509 9 3 7.84238 3 5.98865C3 4.15763 4.20328 3 6.11869 3C7.70669 3 8.8445 3.86255 9 5.1942Z" fill="#64748B"/>
</svg>
