<svg width="16" height="16" viewBox="0 0 16 16" fill="none" xmlns="http://www.w3.org/2000/svg">
<path d="M12.6602 4.3053H12.1175C11.9605 4.3053 11.8333 4.43254 11.8333 4.58951V4.58951C11.8333 4.74647 11.9605 4.87372 12.1175 4.87372H12.6602C12.8172 4.87372 12.9444 4.74647 12.9444 4.58951V4.58951C12.9444 4.43254 12.8172 4.3053 12.6602 4.3053Z" fill="#00B6C2"/>
<path d="M6.54912 13.4H3.78421C3.62725 13.4 3.5 13.5273 3.5 13.6842C3.5 13.8412 3.62725 13.9684 3.78421 13.9684H6.54912C6.70608 13.9684 6.83333 13.8412 6.83333 13.6842C6.83333 13.5273 6.70608 13.4 6.54912 13.4Z" fill="#E75A5A"/>
<path d="M12.1047 8.85266H10.4509C10.2939 8.85266 10.1667 8.97991 10.1667 9.13687C10.1667 9.29384 10.2939 9.42108 10.4509 9.42108H12.1047C12.2617 9.42108 12.3889 9.29384 12.3889 9.13687C12.3889 8.97991 12.2617 8.85266 12.1047 8.85266Z" fill="#9883EC"/>
<path d="M9.32688 8.85266H7.11752C6.96056 8.85266 6.83331 8.97991 6.83331 9.13687C6.83331 9.29384 6.96056 9.42108 7.11752 9.42108H9.32688C9.48385 9.42108 9.61109 9.29384 9.61109 9.13687C9.61109 8.97991 9.48385 8.85266 9.32688 8.85266Z" fill="#E75A5A"/>
<path d="M5.99357 8.85266H3.78421C3.62725 8.85266 3.5 8.97991 3.5 9.13687C3.5 9.29384 3.62725 9.42108 3.78421 9.42108H5.99357C6.15053 9.42108 6.27778 9.29384 6.27778 9.13687C6.27778 8.97991 6.15053 8.85266 5.99357 8.85266Z" fill="#00B6C2"/>
<path d="M6.54912 11.1263H3.78421C3.62725 11.1263 3.5 11.2535 3.5 11.4105C3.5 11.5675 3.62725 11.6947 3.78421 11.6947H6.54912C6.70608 11.6947 6.83333 11.5675 6.83333 11.4105C6.83333 11.2535 6.70608 11.1263 6.54912 11.1263Z" fill="#9883EC"/>
<path d="M6.54912 6.57898H3.78421C3.62725 6.57898 3.5 6.70622 3.5 6.86319V6.86319C3.5 7.02016 3.62725 7.1474 3.78421 7.1474H6.54912C6.70608 7.1474 6.83333 7.02016 6.83333 6.86319C6.83333 6.70622 6.70608 6.57898 6.54912 6.57898Z" fill="#9883EC"/>
<path d="M12.1047 3.16846H6.56198C6.40502 3.16846 6.27777 3.2957 6.27777 3.45267V3.45267C6.27777 3.60963 6.40502 3.73688 6.56198 3.73688H12.1047C12.2616 3.73688 12.3889 3.60963 12.3889 3.45267C12.3889 3.2957 12.2616 3.16846 12.1047 3.16846Z" fill="#E0AF00"/>
<path d="M5.43801 3.16846H3.78421C3.62725 3.16846 3.5 3.2957 3.5 3.45267V3.45267C3.5 3.60963 3.62725 3.73688 3.78421 3.73688H5.43801C5.59497 3.73688 5.72222 3.60963 5.72222 3.45267C5.72222 3.2957 5.59497 3.16846 5.43801 3.16846Z" fill="#E75A5A"/>
<path d="M6.54913 12.2632H6.00644C5.84947 12.2632 5.72223 12.3904 5.72223 12.5474C5.72223 12.7044 5.84947 12.8316 6.00644 12.8316H6.54913C6.70609 12.8316 6.83334 12.7044 6.83334 12.5474C6.83334 12.3904 6.70609 12.2632 6.54913 12.2632Z" fill="#E0AF00"/>
<path d="M6.54913 5.44214H6.00644C5.84947 5.44214 5.72223 5.56938 5.72223 5.72635V5.72635C5.72223 5.88331 5.84947 6.01056 6.00644 6.01056H6.54913C6.70609 6.01056 6.83334 5.88331 6.83334 5.72635V5.72635C6.83334 5.56938 6.70609 5.44214 6.54913 5.44214Z" fill="#00B6C2"/>
<path d="M4.88246 12.2632H3.78421C3.62725 12.2632 3.5 12.3904 3.5 12.5474C3.5 12.7044 3.62725 12.8316 3.78421 12.8316H4.88246C5.03942 12.8316 5.16667 12.7044 5.16667 12.5474C5.16667 12.3904 5.03942 12.2632 4.88246 12.2632Z" fill="#00B6C2"/>
<path d="M4.88246 5.44214H3.78421C3.62725 5.44214 3.5 5.56938 3.5 5.72635V5.72635C3.5 5.88331 3.62725 6.01056 3.78421 6.01056H4.88246C5.03943 6.01056 5.16667 5.88331 5.16667 5.72635V5.72635C5.16667 5.56938 5.03943 5.44214 4.88246 5.44214Z" fill="#F4BF75"/>
<path d="M12.6602 7.71582H8.22867C8.0717 7.71582 7.94446 7.84307 7.94446 8.00003V8.00003C7.94446 8.157 8.0717 8.28424 8.22867 8.28424H12.6602C12.8172 8.28424 12.9445 8.157 12.9445 8.00003C12.9445 7.84307 12.8172 7.71582 12.6602 7.71582Z" fill="#00B6C2"/>
<path d="M7.1047 7.71582H5.4509C5.29393 7.71582 5.16669 7.84307 5.16669 8.00003V8.00003C5.16669 8.157 5.29393 8.28424 5.4509 8.28424H7.1047C7.26166 8.28424 7.38891 8.157 7.38891 8.00003V8.00003C7.38891 7.84307 7.26166 7.71582 7.1047 7.71582Z" fill="#E0AF00"/>
<path d="M4.3269 7.71582H3.78421C3.62725 7.71582 3.5 7.84307 3.5 8.00003V8.00003C3.5 8.157 3.62725 8.28424 3.78421 8.28424H4.3269C4.48386 8.28424 4.61111 8.157 4.61111 8.00003V8.00003C4.61111 7.84307 4.48386 7.71582 4.3269 7.71582Z" fill="#E75A5A"/>
<path d="M10.9936 4.3053H8.78421C8.62725 4.3053 8.5 4.43254 8.5 4.58951V4.58951C8.5 4.74647 8.62725 4.87372 8.78421 4.87372H10.9936C11.1505 4.87372 11.2778 4.74647 11.2778 4.58951C11.2778 4.43254 11.1505 4.3053 10.9936 4.3053Z" fill="#9883EC"/>
<path d="M7.66023 4.3053H3.78421C3.62725 4.3053 3.5 4.43254 3.5 4.58951V4.58951C3.5 4.74647 3.62725 4.87372 3.78421 4.87372H7.66023C7.81719 4.87372 7.94444 4.74647 7.94444 4.58951C7.94444 4.43254 7.81719 4.3053 7.66023 4.3053Z" fill="#00B6C2"/>
<path d="M10.438 9.9895H5.4509C5.29393 9.9895 5.16669 10.1167 5.16669 10.2737C5.16669 10.4307 5.29393 10.5579 5.4509 10.5579H10.438C10.595 10.5579 10.7222 10.4307 10.7222 10.2737C10.7222 10.1167 10.595 9.9895 10.438 9.9895Z" fill="#E0AF00"/>
<path d="M4.3269 9.9895H3.78421C3.62725 9.9895 3.5 10.1167 3.5 10.2737C3.5 10.4307 3.62725 10.5579 3.78421 10.5579H4.3269C4.48386 10.5579 4.61111 10.4307 4.61111 10.2737C4.61111 10.1167 4.48386 9.9895 4.3269 9.9895Z" fill="#9883EC"/>
<path d="M13.2158 5.44214H10.4509C10.2939 5.44214 10.1667 5.56938 10.1667 5.72635V5.72635C10.1667 5.88331 10.2939 6.01056 10.4509 6.01056H13.2158C13.3728 6.01056 13.5 5.88331 13.5 5.72635C13.5 5.56938 13.3728 5.44214 13.2158 5.44214Z" fill="#E75A5A"/>
<path d="M13.2158 6.57898H10.4509C10.2939 6.57898 10.1667 6.70622 10.1667 6.86319V6.86319C10.1667 7.02016 10.2939 7.1474 10.4509 7.1474H13.2158C13.3728 7.1474 13.5 7.02016 13.5 6.86319C13.5 6.70622 13.3728 6.57898 13.2158 6.57898Z" fill="#E0AF00"/>
<path d="M10.438 2.03162H3.78421C3.62725 2.03162 3.5 2.15886 3.5 2.31583C3.5 2.47279 3.62725 2.60004 3.78421 2.60004H10.438C10.595 2.60004 10.7222 2.47279 10.7222 2.31583C10.7222 2.15886 10.595 2.03162 10.438 2.03162Z" fill="#00B6C2"/>
</svg>
