<svg width="12" height="12" viewBox="0 0 12 12" fill="none" xmlns="http://www.w3.org/2000/svg">
<path d="M10.1463 6.21935C10.0779 6.14119 10.0057 6.06283 9.92991 5.98427C9.98279 5.92827 10.0341 5.87247 10.0839 5.81685C11.0202 4.76452 11.4157 3.70869 11.0493 3.0746C10.6982 2.46619 9.65341 2.28477 8.34499 2.5391C8.21627 2.56438 8.08813 2.59277 7.96057 2.62427C7.93607 2.54027 7.91021 2.45666 7.88299 2.37344C7.43907 1.03585 6.72216 0.166104 5.98949 0.166687C5.28716 0.166687 4.60816 0.981604 4.17474 2.24219C4.13196 2.36663 4.09249 2.49185 4.05632 2.61785C3.97116 2.59685 3.8856 2.57741 3.79966 2.55952C2.41949 2.2766 1.30824 2.46327 0.942489 3.09852C0.591906 3.70694 0.958239 4.70269 1.83382 5.70719C1.92093 5.80635 2.01038 5.90358 2.10216 5.99885C1.99366 6.10969 1.89157 6.2211 1.79591 6.33194C0.941323 7.32244 0.595989 8.30127 0.945989 8.90735C1.30766 9.53385 2.40316 9.7386 3.73724 9.4761C3.84535 9.45472 3.95288 9.4306 4.05982 9.40377C4.09871 9.54027 4.14168 9.6758 4.18874 9.81035C4.62041 11.0453 5.29532 11.8334 5.99532 11.8334C6.71866 11.8334 7.44316 10.9858 7.88241 9.69894C7.91741 9.59744 7.94949 9.49185 7.98099 9.38335C8.11904 9.41758 8.25807 9.44791 8.39807 9.47435C9.68316 9.7176 10.7034 9.52686 11.0528 8.92019C11.4139 8.29311 11.0412 7.24194 10.1463 6.21935ZM1.37416 3.34702C1.59932 2.95619 2.50757 2.80335 3.69932 3.04835C3.77554 3.06391 3.85313 3.08141 3.93207 3.10085C3.81558 3.61556 3.73334 4.13743 3.68591 4.66302C3.25614 4.96523 2.84636 5.29492 2.45916 5.65002C2.37399 5.56174 2.29096 5.47133 2.21007 5.37877C1.45932 4.51894 1.16299 3.71394 1.37416 3.34702ZM3.64157 6.68835C3.34407 6.4626 3.06699 6.2316 2.81557 5.99944C3.06641 5.76844 3.34349 5.5386 3.64099 5.31344C3.6301 5.54249 3.62485 5.77174 3.62524 6.00119C3.62524 6.23063 3.63068 6.45969 3.64157 6.68835ZM3.64157 8.98669C3.13595 9.09929 2.61392 9.11788 2.10157 9.04152C1.96111 9.03054 1.8244 8.99086 1.69989 8.92494C1.57537 8.85902 1.4657 8.76826 1.37766 8.65827C1.16474 8.29077 1.44241 7.50444 2.17332 6.65744C2.2651 6.55127 2.35999 6.44783 2.45799 6.3471C2.84537 6.70439 3.25596 7.03567 3.68707 7.33877C3.73498 7.871 3.818 8.39949 3.93557 8.92077C3.83835 8.94527 3.74016 8.96744 3.64099 8.98727L3.64157 8.98669ZM7.78324 4.29727C7.58763 4.17399 7.38968 4.0548 7.18941 3.93969C6.99185 3.82613 6.79216 3.71666 6.59032 3.61127C6.93624 3.46602 7.27632 3.34177 7.60474 3.24085C7.68196 3.58977 7.74154 3.94235 7.78324 4.29727ZM4.64666 2.40377C5.01766 1.3246 5.56716 0.665437 5.99066 0.665437C6.44157 0.664854 7.02724 1.37594 7.41049 2.53035C7.43538 2.6058 7.45871 2.68163 7.48049 2.75785C6.97739 2.91377 6.48514 3.1028 6.00699 3.32369C5.53042 3.10009 5.0393 2.90891 4.53699 2.75144C4.57082 2.63477 4.60738 2.51888 4.64666 2.40377ZM4.41332 3.23444C4.75579 3.34223 5.09261 3.46722 5.42249 3.60894C5.01338 3.81972 4.61516 4.04935 4.22782 4.29785C4.27449 3.92569 4.33691 3.56927 4.41332 3.23444ZM4.22841 7.70277C4.42168 7.82683 4.61788 7.94602 4.81699 8.06035C5.01999 8.17702 5.22552 8.28902 5.43357 8.39635C5.10132 8.54298 4.76176 8.67246 4.41624 8.78427C4.33596 8.42726 4.27327 8.06652 4.22841 7.70335V7.70277ZM7.41107 9.53794C7.25588 10.032 7.01108 10.4934 6.68891 10.8989C6.60936 11.0151 6.50682 11.1138 6.38763 11.1888C6.26843 11.2639 6.13511 11.3137 5.99591 11.3352C5.57066 11.3352 5.02874 10.7023 4.66007 9.64585C4.61652 9.52102 4.57646 9.39502 4.53991 9.26785C5.0446 9.10505 5.53768 8.90821 6.01574 8.67869C6.49796 8.90136 6.99427 9.09214 7.50149 9.24977C7.47349 9.3466 7.44335 9.44266 7.41107 9.53794ZM7.62224 8.7656C7.29032 8.66294 6.94557 8.53635 6.59441 8.38877C6.79235 8.28494 6.99166 8.17508 7.19232 8.05919C7.39843 7.94019 7.5991 7.81827 7.79432 7.69344C7.75534 8.05353 7.6979 8.41139 7.62224 8.7656ZM7.88299 5.99885C7.88299 6.35313 7.87191 6.70702 7.84974 7.06052C7.56216 7.25535 7.25882 7.44552 6.94324 7.62752C6.62824 7.80894 6.31732 7.97577 6.01166 8.12685C5.69005 7.97285 5.37466 7.8068 5.06549 7.62869C4.75827 7.45174 4.45804 7.26333 4.16482 7.06344C4.1376 6.70955 4.12399 6.35527 4.12399 6.0006C4.12399 5.64633 4.13721 5.29224 4.16366 4.93835C4.75006 4.538 5.36586 4.18251 6.00582 3.87494C6.32316 4.02933 6.63485 4.1948 6.94091 4.37135C7.24813 4.54791 7.54952 4.73438 7.84507 4.93077C7.87035 5.28622 7.88299 5.64224 7.88299 5.99885ZM8.44066 3.02794C9.56182 2.81035 10.4065 2.95677 10.6182 3.32369C10.844 3.71452 10.5208 4.57669 9.71174 5.48552C9.66702 5.53569 9.62074 5.58605 9.57291 5.6366C9.17885 5.28038 8.76099 4.95139 8.32224 4.65194C8.27805 4.13216 8.19913 3.61592 8.08599 3.10669C8.20654 3.07713 8.32477 3.05088 8.44066 3.02794ZM8.36482 5.29419C8.6609 5.51028 8.94556 5.74159 9.21766 5.98719C8.94682 6.23672 8.66313 6.47193 8.36774 6.69185C8.37668 6.46085 8.38116 6.22985 8.38116 5.99885C8.38116 5.76397 8.37571 5.52908 8.36482 5.29419ZM10.6217 8.67111C10.4094 9.03919 9.59041 9.19261 8.49082 8.98494C8.36482 8.96122 8.23571 8.93283 8.10349 8.89977C8.2139 8.38395 8.28932 7.86126 8.32924 7.33527C8.76721 7.03078 9.18372 6.69652 9.57582 6.33485C9.64466 6.40602 9.70999 6.4768 9.77182 6.54719C10.1224 6.92844 10.3999 7.37098 10.5902 7.85269C10.6512 7.9797 10.6854 8.11786 10.6908 8.25863C10.6962 8.3994 10.6727 8.53978 10.6217 8.67111ZM5.47732 5.08885C5.29889 5.19189 5.15501 5.34551 5.06389 5.53031C4.97276 5.71511 4.93848 5.92277 4.96537 6.12705C4.99226 6.33134 5.07912 6.52306 5.21497 6.67797C5.35082 6.83289 5.52955 6.94405 5.72857 6.99739C5.92758 7.05074 6.13795 7.04387 6.33307 6.97766C6.52818 6.91145 6.69929 6.78887 6.82474 6.62543C6.9502 6.46198 7.02437 6.265 7.03788 6.0594C7.05139 5.8538 7.00364 5.64882 6.90066 5.47035C6.83226 5.35183 6.74119 5.24795 6.63264 5.16463C6.52409 5.08131 6.40019 5.02019 6.26802 4.98477C6.13584 4.94934 5.99798 4.9403 5.86231 4.95816C5.72665 4.97602 5.59582 5.02043 5.47732 5.08885Z" fill="#00A6FB"/>
</svg>
