<svg width="16" height="16" viewBox="0 0 16 16" fill="none" xmlns="http://www.w3.org/2000/svg">
<path fill-rule="evenodd" clip-rule="evenodd" d="M8 4.02399C6.222 4.02399 5.11133 4.90732 4.66667 6.67465C5.33333 5.79132 6.11133 5.45999 7 5.68065C7.50733 5.80665 7.87 6.17265 8.27067 6.57732C8.92467 7.23665 9.68133 7.99999 11.3333 7.99999C13.1113 7.99999 14.222 7.11665 14.6667 5.34932C14 6.23265 13.2227 6.56399 12.3333 6.34332C11.826 6.21732 11.4633 5.85132 11.062 5.44665C10.4087 4.78665 9.65267 4.02399 8 4.02399ZM4.66667 7.99999C2.88867 7.99999 1.778 8.88332 1.33333 10.6507C2 9.76665 2.778 9.43599 3.66667 9.65665C4.174 9.78265 4.53667 10.1487 4.938 10.5533C5.59133 11.2127 6.348 11.976 8.00067 11.976C9.77867 11.976 10.8893 11.0927 11.334 9.32532C10.6673 10.2087 9.88933 10.54 9.00067 10.3193C8.49333 10.1933 8.13067 9.82732 7.73 9.42265C7.07533 8.76332 6.31867 7.99999 4.66667 7.99999Z" fill="#4C71F6"/>
</svg>
