<svg width="16" height="16" viewBox="0 0 16 16" fill="none" xmlns="http://www.w3.org/2000/svg">
<g clip-path="url(#clip0_10_295)">
<path d="M6.92758 12.8225C6.94139 12.7658 6.9518 12.7247 6.96013 12.6948M6.92758 12.8225C6.92432 12.8359 6.92088 12.8501 6.91723 12.8653L6.91722 12.8653L6.91494 12.8748C6.88447 13.0016 6.84323 13.1731 6.78347 13.3375C6.75225 13.4234 6.71133 13.5212 6.65571 13.6185C6.6556 13.6187 6.6555 13.6189 6.65539 13.6191C6.63243 13.6592 6.60696 13.6993 6.57864 13.7385C6.69965 13.9022 6.98816 14.0033 7.42582 13.9999L6.96013 12.6948M6.92758 12.8225C7.1063 13.238 7.10651 13.2379 7.10672 13.2378L7.10629 13.238L6.92758 12.8225ZM6.96013 12.6948L7.16999 12.3524M6.96013 12.6948L7.16999 12.3524M9.63929 7.76558C9.53188 7.94602 9.56263 8.12632 9.60336 8.22968C9.63816 8.31801 9.68949 8.37995 9.71171 8.40584C9.75446 8.45567 9.8116 8.50789 9.84814 8.54129C9.85145 8.54432 9.85459 8.54719 9.85753 8.54989L9.85766 8.55C9.95505 8.63922 10.0877 8.76098 10.2309 8.94585C10.176 9.13392 10.1406 9.33026 10.1271 9.5323H9.83507C9.07132 9.5323 8.46187 10.1627 8.46187 10.9193V13.4381L8.65779 3.75408C8.65788 3.75409 8.65797 3.7541 8.65806 3.75411L9.07707 3.82151L9.2093 3.41487L9.20934 3.41476L9.20937 3.41468L9.20937 3.41466L9.20942 3.41452L9.21001 3.41273L9.21332 3.40282C9.21642 3.39365 9.22126 3.3795 9.2277 3.36118C9.24062 3.32447 9.25986 3.27144 9.28437 3.20837C9.33412 3.08038 9.40242 2.91938 9.48064 2.77165C9.49353 2.74732 9.50613 2.72442 9.51839 2.70294C9.5527 2.76926 9.58828 2.8402 9.62364 2.9122C9.69449 3.05646 9.76139 3.19869 9.81078 3.30531C9.83541 3.35848 9.85554 3.40248 9.86945 3.43306L9.88541 3.46827L9.88947 3.47728L9.89045 3.47946L9.89067 3.47994L9.89071 3.48002L9.89071 3.48003L9.89072 3.48004L10.1187 3.98831L10.5992 3.70704L10.5993 3.707L10.5994 3.70693L10.5994 3.70689L10.5995 3.70684L10.5996 3.70679L10.6026 3.70504L10.6166 3.69707C10.6242 3.69278 10.634 3.6873 10.6455 3.68096C10.6954 3.88187 10.7313 4.12156 10.749 4.38316C10.7794 4.82999 10.7533 5.28076 10.6899 5.60555C10.5149 6.48034 10.1369 7.0308 9.85188 7.44344L9.85182 7.44352L9.84371 7.45528C9.7734 7.5571 9.69882 7.66512 9.63929 7.76558ZM9.63929 7.76558C9.6391 7.76589 9.63891 7.76621 9.63872 7.76653L10.069 8.02121L9.63985 7.76463C9.63967 7.76494 9.63948 7.76526 9.63929 7.76558ZM6.82139 12.5756L6.97784 12.6397C6.97293 12.6517 6.96731 12.6691 6.96014 12.6948L7.16993 12.3523L7.16798 12.3511L7.15611 12.3436C7.1453 12.3366 7.13002 12.3266 7.11295 12.3148C7.08103 12.2928 7.05618 12.2738 7.04194 12.2617M6.82139 12.5756L7.01288 12.224M6.82139 12.5756C6.81132 12.5522 6.80217 12.531 6.79385 12.5116M6.82139 12.5756L6.79385 12.5116M7.04194 12.2617C7.04144 12.2611 7.04089 12.2604 7.0403 12.2597C7.03334 12.2511 7.02552 12.2408 7.01288 12.224M7.04194 12.2617C7.04483 12.2653 7.04619 12.2668 7.04618 12.2668C7.04618 12.2668 7.04502 12.2655 7.04284 12.2633L6.79385 12.5116M7.04194 12.2617C7.03859 12.2589 7.03582 12.2564 7.03369 12.2544L6.79222 12.5079C6.77677 12.472 6.76425 12.4429 6.75412 12.4194L7.01288 12.224M7.01288 12.224L6.79385 12.5116M5.94495 12.6315L6.22046 12.6977C6.22955 12.6864 6.2387 12.6754 6.24786 12.6648C6.33163 12.5676 6.42116 12.4945 6.49586 12.4423C6.49597 12.4422 6.49607 12.4422 6.49618 12.4421C6.51358 12.4299 6.53017 12.4189 6.5457 12.409C6.58782 12.3822 6.62488 12.3617 6.65315 12.3471C6.66737 12.3398 6.67957 12.3338 6.68934 12.3293L6.70219 12.3233L6.70719 12.3211L6.70933 12.3202L6.7103 12.3198L6.71076 12.3196C6.7109 12.3195 6.71103 12.3195 6.75411 12.4194L7.01286 12.224C7.01204 12.2229 7.01094 12.2215 7.00958 12.2196C6.99422 12.199 6.94538 12.1333 6.89127 12.0836C6.89079 12.0832 6.89019 12.0826 6.88949 12.082C6.86919 12.0631 6.7589 11.9605 6.58484 11.9415C6.46838 11.9288 6.33871 11.9555 6.22716 12.0369C6.12763 12.1095 6.07864 12.1994 6.05552 12.2534L6.05546 12.2533L6.05245 12.2607C6.00751 12.3704 5.97413 12.5097 5.94968 12.6118C5.94807 12.6185 5.94649 12.6251 5.94495 12.6315ZM5.94495 12.6315C5.91202 12.7684 5.88241 12.8892 5.8436 12.996C5.80312 13.1074 5.76934 13.1542 5.75611 13.1675L5.75427 13.1693C5.71338 13.2107 5.62016 13.2575 5.43516 13.2496C5.30566 13.2441 5.16858 13.2121 5.04969 13.1673C5.05467 13.1593 5.05985 13.1513 5.06515 13.1435C5.07653 13.1266 5.08644 13.1134 5.09276 13.1052L5.09875 13.0977M5.94495 12.6315L5.09884 13.0976C5.09918 13.0972 5.09913 13.0972 5.09875 13.0977M5.09875 13.0977L5.09805 13.0985L5.09743 13.0992L5.09707 13.0997L5.09687 13.0999C5.09685 13.0999 5.09684 13.0999 5.09567 13.099M5.09875 13.0977L5.09567 13.099M5.09567 13.099L4.55709 12.457L4.71236 12.3567C4.71348 12.3578 4.71403 12.3584 4.71403 12.3584C4.71405 12.3584 4.71289 12.357 4.71072 12.3538C4.5989 12.1792 4.47231 11.8413 4.50534 11.4047C4.52031 11.2355 4.63352 11.0201 4.79875 10.8096C4.87518 10.7122 4.95101 10.6305 5.00765 10.5734C5.03572 10.5451 5.05845 10.5235 5.07335 10.5097L5.08934 10.495L5.09135 10.4932L5.09152 10.4931L5.09167 10.4929L5.09193 10.4927L5.09222 10.4925L5.09227 10.4924L5.09236 10.4923L5.29429 10.3168L5.25917 10.0519L5.25915 10.0517L5.25914 10.0517L5.25907 10.0511L5.25902 10.0507L5.25899 10.0505L5.25877 10.0485L5.25655 10.0269C5.25459 10.0062 5.2519 9.97329 5.24967 9.92983C5.2452 9.84271 5.24267 9.71456 5.25141 9.55891C5.26904 9.24497 5.33169 8.83413 5.50524 8.42527L5.50571 8.42414C5.65041 8.0809 5.93298 7.74435 6.20751 7.47844C6.34071 7.34943 6.46374 7.24494 6.55286 7.17319C6.59726 7.13744 6.63283 7.11016 6.65651 7.09238L6.68261 7.07304L6.68817 7.06901L6.68834 7.06888L6.6885 7.06877L6.68863 7.06868L6.68882 7.06854L6.68895 7.06845L7.14847 6.74305L6.77117 6.3265L6.77105 6.32637L6.77101 6.32632L6.77093 6.32623L6.77017 6.32539L5.09567 13.099ZM7.16999 12.3524L7.17004 12.3524L7.17015 12.3525L7.17031 12.3526L7.17035 12.3526L7.17051 12.3527L7.99314 12.8566L7.11255 13.2353M7.16999 12.3524L7.00846 13.446C6.99913 13.4424 6.9916 13.4391 6.98563 13.4362M7.11255 13.2353C7.11412 13.2345 7.11471 13.2343 7.11415 13.2345L7.11171 13.2356L7.10939 13.2367L7.11255 13.2353ZM7.11255 13.2353C7.11218 13.2355 7.11177 13.2357 7.1113 13.236C7.10619 13.2386 7.09612 13.2441 7.08332 13.2522C7.0557 13.2698 7.02681 13.2927 7.00529 13.3177C6.98498 13.3413 6.97917 13.3572 6.97729 13.3665L6.97726 13.3666C6.9764 13.3709 6.97218 13.3918 6.98563 13.4362M6.98563 13.4362C6.97605 13.4317 6.97045 13.4283 6.9678 13.4265M6.98563 13.4362C6.98904 13.4475 6.99359 13.4603 6.99961 13.4747C6.98712 13.4452 6.97285 13.4308 6.9678 13.4265M6.9678 13.4265C6.96663 13.4255 6.96596 13.425 6.96592 13.425C6.96587 13.4251 6.96646 13.4256 6.9678 13.4265ZM6.36806 4.8332C6.36806 4.8332 6.36806 4.8332 6.36807 4.8332C6.36807 4.8332 6.36807 4.8332 6.36807 4.8332C6.36807 4.8332 6.36807 4.8332 6.36808 4.8332C6.37171 4.83202 6.3814 4.8289 6.39216 4.8251L6.39222 4.82527L6.40496 4.82038C6.42595 4.81232 6.44775 4.80391 6.47025 4.79506L6.36806 4.8332ZM6.97477 12.647C6.96265 12.6754 6.94062 12.7189 6.90257 12.7643C6.87186 12.6929 6.84607 12.633 6.82441 12.5826L6.97477 12.647ZM5.94495 12.6315L6.22045 12.6977L5.94495 12.6315ZM4.55494 12.4544L4.46437 12.3465C4.46303 12.3441 4.46308 12.3441 4.46312 12.344L4.46364 12.3437L4.46468 12.3431L4.46671 12.3419L4.47065 12.3397L4.47804 12.3356C4.48276 12.3331 4.48716 12.3309 4.4913 12.3289C4.49943 12.325 4.50729 12.3218 4.5152 12.3191C4.52969 12.3141 4.55213 12.3083 4.58156 12.3086C4.61433 12.309 4.65057 12.3172 4.68244 12.335C4.69495 12.342 4.7034 12.3486 4.70839 12.353L4.55494 12.4544ZM4.99948 13.2728C4.99932 13.2741 4.99917 13.2748 4.99914 13.2748L4.99948 13.2728ZM9.68904 2.46848C9.68904 2.46853 9.68836 2.46907 9.68699 2.46999C9.68836 2.4689 9.68904 2.46844 9.68904 2.46848Z" stroke="#00B6C2"/>
<path fill-rule="evenodd" clip-rule="evenodd" d="M15.25 10.6667H14.875V9.90476C14.875 8.85333 14.035 8 13 8C11.965 8 11.125 8.85333 11.125 9.90476V10.6667H10.75C10.3375 10.6667 10 11.0095 10 11.4286V15.2381C10 15.6571 10.3375 16 10.75 16H15.25C15.6625 16 16 15.6571 16 15.2381V11.4286C16 11.0095 15.6625 10.6667 15.25 10.6667ZM13 14.0952C12.5875 14.0952 12.25 13.7524 12.25 13.3333C12.25 12.9143 12.5875 12.5714 13 12.5714C13.4125 12.5714 13.75 12.9143 13.75 13.3333C13.75 13.7524 13.4125 14.0952 13 14.0952ZM11.8375 9.90476V10.6667H14.1625V9.90476C14.1625 9.25333 13.6412 8.7238 13 8.7238C12.3587 8.7238 11.8375 9.25333 11.8375 9.90476Z" fill="#F4BF75"/>
</g>
<defs>
<clipPath id="clip0_10_295">
<rect width="16" height="16" fill="white"/>
</clipPath>
</defs>
</svg>
