<svg width="16" height="16" viewBox="0 0 16 16" fill="none" xmlns="http://www.w3.org/2000/svg">
<path d="M12.1905 11.2544C11.7997 11.3523 11.4214 11.5694 11.0299 11.8123L11.0293 11.8126C10.5094 12.1342 10.1023 12.2955 9.80795 12.375C9.66082 12.4147 9.54253 12.4337 9.45327 12.4422C9.40868 12.4465 9.37153 12.4481 9.34183 12.4483C9.32699 12.4484 9.31404 12.4482 9.30298 12.4478L9.28783 12.4471L9.28132 12.4466L9.27834 12.4464L9.27692 12.4463L9.27622 12.4463C9.27588 12.4462 9.27554 12.4462 9.31542 11.9478L9.27554 12.4462L8.99303 12.4236L8.8724 12.1799C8.87203 12.1793 8.87161 12.1786 8.87115 12.1778L8.87131 12.1777L8.86868 12.1724L8.86993 12.1748L8.87139 12.1776L8.96745 12.1201C8.86732 12.1696 8.86734 12.1697 8.86735 12.1697L8.86731 12.1696L8.96767 12.1199L9.29999 11.9207L8.98798 12.1099L12.1905 11.2544ZM12.1905 11.2544C11.7724 11.393 11.4196 11.5828 10.8336 11.9651M12.1905 11.2544L10.8336 11.9651M10.8336 11.9651C10.273 12.3272 9.68102 12.596 9.22456 12.775C8.99736 12.8641 8.80644 12.9298 8.67348 12.973C8.60706 12.9946 8.55527 13.0104 8.52084 13.0207L8.48262 13.0319L8.47395 13.0344L8.47258 13.0348L8.47245 13.0348L8.47234 13.0348L8.47233 13.0348L8.47222 13.0349L8.29263 13.0844L8.2095 13.2092C8.19489 13.2198 8.15283 13.2465 8.07036 13.2659L8.07035 13.2659L8.06664 13.2668C7.84549 13.3206 7.24945 13.3794 6.6348 13.4255C6.04332 13.4699 5.50589 13.4978 5.41841 13.4999C5.21069 13.5013 5.07913 13.4735 5.00846 13.446C4.99913 13.4424 4.99161 13.4391 4.98563 13.4362C4.97218 13.3918 4.97641 13.3709 4.97727 13.3666L4.97729 13.3665C4.97917 13.3572 4.98498 13.3413 5.00529 13.3177C5.02681 13.2927 5.05571 13.2698 5.08332 13.2522C5.09613 13.2441 5.10619 13.2386 5.1113 13.236C5.11177 13.2357 5.11219 13.2355 5.11255 13.2353L5.99314 12.8566L5.17051 12.3527L5.17036 12.3526L5.17032 12.3526L5.17015 12.3525L5.17005 12.3524L5.16999 12.3524L5.16993 12.3523L5.16799 12.3511L5.15612 12.3436C5.14531 12.3366 5.13003 12.3266 5.11295 12.3148C5.08107 12.2929 5.05624 12.2739 5.04199 12.2618C5.03951 12.2587 5.03564 12.2539 5.03014 12.2467C5.02875 12.2449 5.02585 12.2411 5.02198 12.236C5.00957 12.2196 4.98725 12.1901 4.97335 12.1728C4.97287 12.1722 4.97224 12.1714 4.97148 12.1704C4.95752 12.1527 4.89642 12.0753 4.80753 12.0195C4.76182 11.9908 4.61315 11.9061 4.41502 11.9513C4.19109 12.0024 4.09035 12.172 4.0555 12.2534L4.05544 12.2534L4.0524 12.2608C4.01208 12.3594 3.98306 12.4749 3.96183 12.5617C3.95546 12.5877 3.94941 12.6129 3.94348 12.6375C3.92649 12.7081 3.91057 12.7743 3.89144 12.8435C3.83509 13.0472 3.78439 13.1392 3.75619 13.1674L3.75618 13.1674L3.75427 13.1693C3.71339 13.2107 3.62016 13.2575 3.43516 13.2496C3.30567 13.2441 3.16858 13.2121 3.04969 13.1673C3.05468 13.1593 3.05986 13.1513 3.06516 13.1435C3.07653 13.1266 3.08644 13.1134 3.09277 13.1052L3.09875 13.0977M10.8336 11.9651L3.09885 13.0976C3.09918 13.0972 3.09913 13.0972 3.09875 13.0977M3.09875 13.0977L3.09806 13.0985L3.09744 13.0992L3.09707 13.0997L3.09687 13.0999C3.09686 13.0999 3.09684 13.0999 3.09567 13.099L2.55709 12.457L3.09875 13.0977ZM8.87256 12.1798L8.98781 12.11L8.87256 12.1798ZM8.79385 11.9266C8.79658 11.9643 8.8061 12.0704 8.87234 12.1798L9.18037 5.70239C8.9845 6.68328 8.55558 7.30435 8.2633 7.72758C8.18707 7.83795 8.12013 7.93487 8.06905 8.02121L7.64012 7.76426C7.63989 7.76465 7.63966 7.76504 7.63943 7.76543C7.55142 7.91318 7.55465 8.06716 7.58589 8.1778C7.61248 8.272 7.6592 8.33857 7.68216 8.36911C7.72731 8.42918 7.78427 8.48214 7.81335 8.50918L7.81495 8.51067C7.83038 8.52501 7.84592 8.53926 7.86171 8.55375C7.92448 8.61133 7.99128 8.67261 8.07068 8.75764C8.26076 8.96118 8.51592 9.2964 8.71768 9.85639L8.71824 9.85793C8.89624 10.3469 8.9079 10.8008 8.87883 11.1557C8.86532 11.3207 8.84352 11.4604 8.82464 11.5814C8.82304 11.5916 8.82146 11.6018 8.8199 11.6118C8.81086 11.67 8.80008 11.7401 8.7952 11.8011C8.79274 11.8317 8.79025 11.8768 8.79385 11.9266ZM8.74905 4.38316C8.77941 4.82996 8.75325 5.28071 8.68985 5.60549L6.65779 3.75408C6.65789 3.75409 6.65798 3.7541 6.65806 3.75411L7.07707 3.82151L7.20931 3.41487L7.20934 3.41476L7.20937 3.41468L7.20938 3.41466L7.20942 3.41452L7.21001 3.41273L7.21333 3.40282C7.21643 3.39365 7.22126 3.3795 7.22771 3.36118C7.24063 3.32447 7.25986 3.27144 7.28437 3.20837C7.33412 3.08038 7.40243 2.91938 7.48065 2.77165C7.49353 2.74732 7.50613 2.72443 7.51839 2.70295C7.55269 2.76926 7.58827 2.8402 7.62363 2.9122C7.69448 3.05645 7.76138 3.19868 7.81076 3.3053C7.83539 3.35847 7.85552 3.40248 7.86943 3.43306L7.88539 3.46826L7.88945 3.47727L7.89043 3.47945L7.89065 3.47994L7.89069 3.48001L7.89069 3.48003L7.8907 3.48003L8.11872 3.9883L8.59916 3.70704L8.59923 3.707L8.59933 3.70694L8.5994 3.7069L8.59949 3.70685L8.59958 3.7068L8.6026 3.70505L8.61658 3.69708C8.62419 3.69278 8.63397 3.68731 8.64551 3.68096C8.69543 3.88187 8.73127 4.12155 8.74905 4.38316ZM2.99949 13.2728C2.99932 13.2741 2.99918 13.2748 2.99914 13.2748L2.99949 13.2728ZM4.96592 13.425C4.96597 13.425 4.96664 13.4255 4.96781 13.4265C4.96646 13.4256 4.96588 13.4251 4.96592 13.425ZM2.71072 12.3538C2.59891 12.1792 2.47232 11.8413 2.50535 11.4047C2.52032 11.2355 2.63352 11.0201 2.79875 10.8096C2.87518 10.7122 2.95101 10.6305 3.00765 10.5734C3.03573 10.5451 3.05846 10.5235 3.07336 10.5097L3.08934 10.495L3.09135 10.4932L3.09152 10.4931L3.09168 10.4929L3.09194 10.4927L3.09222 10.4925L3.09227 10.4924L3.09237 10.4923L3.2943 10.3168L3.25918 10.0519L3.25915 10.0517L3.25915 10.0517L3.25908 10.0511L3.25902 10.0507L2.71072 12.3538ZM7.68905 2.46848C7.68905 2.46853 7.68837 2.46907 7.68699 2.46999C7.68836 2.4689 7.68905 2.46844 7.68905 2.46848Z" stroke="#00B6C2"/>
</svg>
